<?xml version="1.0" encoding="utf-8"?>
<!-- Generator: Adobe Illustrator 19.2.1, SVG Export Plug-In . SVG Version: 6.00 Build 0)  -->
<svg version="1.1" id="Layer_1" xmlns="http://www.w3.org/2000/svg" xmlns:xlink="http://www.w3.org/1999/xlink" x="0px" y="0px"
	 viewBox="0 0 828 265.3" style="enable-background:new 0 0 828 265.3;" xml:space="preserve">
<style type="text/css">
	.st0{fill:#D19007;}
	.st1{fill:#EA5036;}
	.st2{fill:#F39208;}
	.st3{fill:#4C5C5D;}
	.st4{fill:#3B494A;}
	.st5{fill:url(#SVGID_1_);}
	.st6{fill:url(#SVGID_2_);}
	.st7{fill:#AB2522;}
	.st8{fill:#431C11;}
	.st9{fill:#D89788;}
</style>
<path class="st0" d="M69.6,90c9.2,24.3,23.1,46.5,40.9,65.4s39.1,34.1,62.8,44.8L254.4,20L69.6,90z"/>
<path class="st1" d="M91,195.7C91,195.7,91,195.6,91,195.7C91,195.6,91,195.6,91,195.7c-11-11-11.5-11.5-22.4-22.4l0,0h-0.1
	c-25-8.7-48.4,18.3-48.4,70.8C73.3,244.7,99.6,220.7,91,195.7z"/>
<path class="st2" d="M87.1,191.8L87.1,191.8C87.1,191.7,87.1,191.7,87.1,191.8c-7.1-7.2-7.5-7.5-14.6-14.6l0,0l0,0
	C56.2,171.6,41,189.1,41,223.3C75.6,223.7,92.7,208,87.1,191.8z"/>
<polygon class="st3" points="107.6,223.9 41.2,157.5 66,146.9 118.2,199.1 "/>
<path class="st4" d="M118.2,199.1L66,146.9l-8.9,3.8c7.6,11,16,21.4,25.2,31.1c9.7,10.3,20.1,19.7,31.2,28.3L118.2,199.1z"/>
<linearGradient id="SVGID_1_" gradientUnits="userSpaceOnUse" x1="53.6864" y1="228.1389" x2="78.6276" y2="253.08" gradientTransform="matrix(1 0 0 -1 31.795 407.7575)">
	<stop  offset="0.1981" style="stop-color:#915114"/>
	<stop  offset="0.3348" style="stop-color:#A05816"/>
	<stop  offset="0.6093" style="stop-color:#B76417"/>
	<stop  offset="0.8408" style="stop-color:#C66B15"/>
	<stop  offset="1" style="stop-color:#CB6D14"/>
</linearGradient>
<path class="st5" d="M110.5,155.4C92.7,136.5,78.8,114.3,69.6,90l-32.4,12.3c10.8,28.5,27.1,54.6,48,76.9s46,40.1,73.8,52.6
	l14.2-31.6C149.6,189.5,128.2,174.3,110.5,155.4z"/>
<linearGradient id="SVGID_2_" gradientUnits="userSpaceOnUse" x1="81.016" y1="254.0685" x2="218.63" y2="391.6825" gradientTransform="matrix(1 0 0 -1 31.795 407.7575)">
	<stop  offset="0" style="stop-color:#FBBA09"/>
	<stop  offset="6.471223e-02" style="stop-color:#FCC009"/>
	<stop  offset="0.3061" style="stop-color:#FFD505"/>
	<stop  offset="0.5452" style="stop-color:#FFE302"/>
	<stop  offset="0.7787" style="stop-color:#FFEB13"/>
	<stop  offset="1" style="stop-color:#FDEB1B"/>
</linearGradient>
<path class="st6" d="M72.4,88.9c9.1,23.9,22.7,45.8,40.2,64.4s38.5,33.6,61.8,44.1l80-177.4L72.4,88.9z"/>
<path class="st7" d="M167.6,52.9c0.7,10.8,9.7,19.4,20.7,19.4c11.5,0,20.8-9.3,20.8-20.8c0-4.8-1.6-9.2-4.4-12.7L167.6,52.9z"/>
<path class="st7" d="M224.6,72.7c-7.5,0-13.7,6.1-13.7,13.7c0,5.5,3.3,10.3,8,12.4l11.2-24.9C228.4,73.1,226.5,72.7,224.6,72.7z"/>
<circle class="st8" cx="185.9" cy="63.6" r="2.9"/>
<circle class="st8" cx="185.9" cy="51" r="2.9"/>
<circle class="st9" cx="197.5" cy="51" r="2.9"/>
<circle class="st9" cx="198.2" cy="61.3" r="2.9"/>
<circle class="st9" cx="175.7" cy="55.8" r="2.9"/>
<circle class="st8" cx="216.3" cy="81" r="1.9"/>
<circle class="st8" cx="222.4" cy="85.3" r="1.9"/>
<circle class="st9" cx="223.3" cy="77.9" r="1.9"/>
<circle class="st9" cx="216.3" cy="89.2" r="1.9"/>
<ellipse transform="matrix(0.3112 -0.9503 0.9503 0.3112 20.291 239.847)" class="st7" cx="175.6" cy="105.9" rx="20.8" ry="20.7"/>
<ellipse transform="matrix(0.3112 -0.9503 0.9503 0.3112 7.2721 231.7427)" class="st8" cx="163.5" cy="110.9" rx="2.9" ry="2.9"/>
<ellipse transform="matrix(0.3112 -0.9503 0.9503 0.3112 27.2568 252.4969)" class="st8" cx="187.8" cy="107.4" rx="2.9" ry="2.9"/>
<ellipse transform="matrix(0.3112 -0.9503 0.9503 0.3112 31.433 226.3186)" class="st8" cx="171.8" cy="91.5" rx="2.9" ry="2.9"/>
<ellipse transform="matrix(0.3112 -0.9503 0.9503 0.3112 22.736 238.4224)" class="st8" cx="175.8" cy="103.5" rx="2.9" ry="2.9"/>
<ellipse transform="matrix(0.3112 -0.9503 0.9503 0.3112 9.7996 242.5704)" class="st9" cx="172.2" cy="114.5" rx="2.9" ry="2.9"/>
<ellipse transform="matrix(0.3112 -0.9503 0.9503 0.3112 17.7472 224.741)" class="st9" cx="163.9" cy="100.1" rx="2.9" ry="2.9"/>
<ellipse transform="matrix(0.3112 -0.9503 0.9503 0.3112 12.6557 254.3341)" class="st9" cx="181.8" cy="118.4" rx="2.9" ry="2.9"/>
<ellipse transform="matrix(0.3112 -0.9503 0.9503 0.3112 35.7948 240.1)" class="st9" cx="183.5" cy="95.4" rx="2.9" ry="2.9"/>
<ellipse transform="matrix(0.4367 -0.8996 0.8996 0.4367 -22.9554 161.6019)" class="st7" cx="117.6" cy="99.1" rx="20.8" ry="20.8"/>
<ellipse transform="matrix(0.4367 -0.8996 0.8996 0.4367 -11.4515 169.4173)" class="st8" cx="129.6" cy="93.9" rx="2.9" ry="2.9"/>
<ellipse transform="matrix(0.4367 -0.8996 0.8996 0.4367 -36.0687 160.4503)" class="st8" cx="110.1" cy="109" rx="2.9" ry="2.9"/>
<ellipse transform="matrix(0.4367 -0.8996 0.8996 0.4367 -15.8769 147.4325)" class="st8" cx="109.8" cy="86.4" rx="2.9" ry="2.9"/>
<ellipse transform="matrix(0.4367 -0.8996 0.8996 0.4367 -22.6599 158.958)" class="st8" cx="115.6" cy="97.6" rx="2.9" ry="2.9"/>
<ellipse transform="matrix(0.4367 -0.8996 0.8996 0.4367 -21.354 171.2242)" class="st9" cx="126" cy="102.7" rx="2.9" ry="2.9"/>
<ellipse transform="matrix(0.4367 -0.8996 0.8996 0.4367 -9.5999 158.0977)" class="st9" cx="121.4" cy="86.7" rx="2.9" ry="2.9"/>
<ellipse transform="matrix(0.4367 -0.8996 0.8996 0.4367 -32.1736 173.1086)" class="st9" cx="122.1" cy="112.2" rx="2.9" ry="2.9"/>
<ellipse transform="matrix(0.4367 -0.8996 0.8996 0.4367 -28.9274 148.8157)" class="st9" cx="104.4" cy="97.5" rx="2.9" ry="2.9"/>
<ellipse transform="matrix(0.989 -0.1482 0.1482 0.989 -19.9934 21.2709)" class="st7" cx="132.7" cy="144.8" rx="14" ry="14"/>
<ellipse transform="matrix(0.989 -0.1482 0.1482 0.989 -18.8327 21.8709)" class="st8" cx="137.4" cy="137.3" rx="2" ry="2"/>
<ellipse transform="matrix(0.989 -0.1482 0.1482 0.989 -21.2284 21.3032)" class="st8" cx="132.3" cy="153.1" rx="2" ry="2"/>
<ellipse transform="matrix(0.989 -0.1482 0.1482 0.989 -19.4871 19.8638)" class="st8" cx="123.6" cy="140.7" rx="2" ry="2"/>
<ellipse transform="matrix(0.989 -0.1482 0.1482 0.989 -19.9985 21.0187)" class="st8" cx="131.1" cy="144.7" rx="2" ry="2"/>
<ellipse transform="matrix(0.989 -0.1482 0.1482 0.989 -19.7366 22.1458)" class="st9" cx="138.7" cy="143.5" rx="2" ry="2"/>
<ellipse transform="matrix(0.989 -0.1482 0.1482 0.989 -18.7782 20.7941)" class="st9" cx="130.2" cy="136.4" rx="2" ry="2"/>
<ellipse transform="matrix(0.989 -0.1482 0.1482 0.989 -20.7246 22.458)" class="st9" cx="140.3" cy="150.3" rx="2" ry="2"/>
<ellipse transform="matrix(0.989 -0.1482 0.1482 0.989 -20.6902 20.131)" class="st9" cx="124.7" cy="148.9" rx="2" ry="2"/>
<g>
	<path class="st7" d="M193.9,145.6c-9.7-6.2-22.5-3.3-28.6,6.4c-6.2,9.7-3.3,22.5,6.4,28.6c2.8,1.8,5.9,2.8,9.1,3.1l16.2-35.9
		C195.9,147,194.9,146.2,193.9,145.6z"/>
	
		<ellipse transform="matrix(0.5371 -0.8435 0.8435 0.5371 -60.5569 219.4707)" class="st8" cx="169.7" cy="164.9" rx="2.9" ry="2.9"/>
	
		<ellipse transform="matrix(0.5371 -0.8435 0.8435 0.5371 -40.452 222.5369)" class="st8" cx="182.5" cy="148.1" rx="2.9" ry="2.9"/>
	
		<ellipse transform="matrix(0.5371 -0.8435 0.8435 0.5371 -50.6271 229.2288)" class="st8" cx="183.5" cy="160.7" rx="2.9" ry="2.9"/>
	
		<ellipse transform="matrix(0.5371 -0.8435 0.8435 0.5371 -61.8169 228.4343)" class="st9" cx="177.2" cy="170.5" rx="2.9" ry="2.9"/>
	
		<ellipse transform="matrix(0.5371 -0.8435 0.8435 0.5371 -50.4169 217.239)" class="st9" cx="172.7" cy="154.6" rx="2.9" ry="2.9"/>
	<path class="st9" d="M183.1,175.1c-0.6,1-0.6,2.2,0,3.1l2-4.4C184.3,173.9,183.6,174.4,183.1,175.1z"/>
	<path class="st9" d="M194.6,152.3c-1.4-0.9-3.2-0.5-4,0.9c-0.9,1.4-0.5,3.2,0.9,4c0.3,0.2,0.6,0.3,0.9,0.4L194.6,152.3
		C194.7,152.4,194.7,152.3,194.6,152.3z"/>
</g>
<g>
	<path class="st8" d="M196.7,44.5c1.6,0,2.9-1.3,2.9-2.9c0-0.3,0-0.5-0.1-0.8l-5.4,2.1C194.6,43.8,195.6,44.5,196.7,44.5z"/>
</g>
<g>
	<path class="st3" d="M296.9,77.5h28.9c17.4,0,30.3,13.4,30.3,30.1s-12.9,30.1-30.4,30.1h-12.8v24h-16V77.5z M312.9,92.4v30.4h11.8
		c9.1,0,15.3-6.8,15.3-15.2s-6.2-15.2-15.3-15.2C324.6,92.4,312.9,92.4,312.9,92.4z"/>
	<path class="st3" d="M359,132.8c0-16.6,13.4-30,30-30c17.6,0,29.7,13.2,29.7,29.8v5.8h-44.5c1.8,6.3,7,10.5,15.3,10.5
		c6.3,0,11.6-3.5,14.2-9l12.6,7.5c-5,9-14.1,15.3-26.8,15.3C371.4,162.8,359,149.4,359,132.8z M374.9,125.8h27.9
		c-2.1-6-7-9.1-13.7-9.1C382.4,116.7,377.3,120.4,374.9,125.8z"/>
	<path class="st3" d="M440.9,156v32.1h-15.8V104h15.8v6.6c3.7-4.5,9.6-7.7,17.3-7.7c13,0,27.9,9.6,27.9,30c0,20.3-15.4,30-27.6,30
		C450.8,162.8,444.6,160.2,440.9,156z M470.6,132.7c0-8.9-6.7-15.4-15.4-15.4c-8.5,0-14.7,6.9-14.7,15.4s6.2,15.6,14.7,15.6
		C463.9,148.3,470.6,141.6,470.6,132.7z"/>
	<path class="st3" d="M507.7,156v32.1h-15.8V104h15.8v6.6c3.7-4.5,9.6-7.7,17.3-7.7c13,0,27.9,9.6,27.9,30c0,20.3-15.4,30-27.6,30
		C517.6,162.8,511.4,160.2,507.7,156z M537.3,132.7c0-8.9-6.7-15.4-15.4-15.4c-8.5,0-14.7,6.9-14.7,15.4s6.2,15.6,14.7,15.6
		C530.8,148.3,537.3,141.6,537.3,132.7z"/>
	<path class="st3" d="M557.6,132.8c0-16.6,13.4-30,30-30c17.6,0,29.7,13.2,29.7,29.8v5.8h-44.5c1.8,6.3,7,10.5,15.3,10.5
		c6.3,0,11.6-3.5,14.2-9l12.6,7.5c-5,9-14.1,15.3-26.8,15.3C570,162.8,557.6,149.4,557.6,132.8z M573.5,125.8h27.9
		c-2.1-6-7-9.1-13.7-9.1C581,116.7,575.8,120.4,573.5,125.8z"/>
	<path class="st3" d="M623.7,104h15.7v9.4c2.9-6,8.1-9.4,15.9-9.4h6.3v15.3h-10c-8.4,0-12.1,4.4-12.1,15.1v27.2h-15.8V104L623.7,104
		z"/>
	<path class="st3" d="M664.7,132.8c0-16.6,13.2-30,29.8-30s29.8,13.4,29.8,30s-13.2,30-29.8,30C678,162.8,664.7,149.4,664.7,132.8z
		 M709.1,132.8c0-8.2-6.5-15-14.5-15c-8.2,0-14.4,6.8-14.4,15s6.2,15,14.4,15C702.6,147.8,709.1,141,709.1,132.8z"/>
	<path class="st3" d="M730.8,104h15.7v6.5c3.7-4.7,9.3-7.6,15.9-7.6c13.6,0,21.8,8.8,21.8,23.6v35.1h-16v-33.1
		c0-7.7-3.6-12.2-10.6-12.2c-6,0-10.9,4.1-10.9,13.8v31.5h-15.8V104H730.8z"/>
	<path class="st3" d="M792.2,82.5h15.8v15.8h-15.8V82.5z M792.2,104h15.8v57.6h-15.8V104z"/>
</g>
<g>
	<path class="st3" d="M293.5,209.9h13v4h-8.8v4.9h8.8v4h-8.8v5h8.8v4h-13V209.9z"/>
	<path class="st3" d="M308.5,216.8h4.1v1.6c0.9-1.2,2.3-1.9,4-1.9c2.1,0,3.7,0.8,4.6,2.4c1-1.4,2.7-2.4,4.7-2.4
		c3.8,0,5.7,2.3,5.7,6.2v9.1h-4.2v-8.6c0-2-0.8-3.2-2.6-3.2c-1.6,0-2.7,1.1-2.7,3.6v8.2h-4.2v-8.6c0-2-0.8-3.2-2.6-3.2
		c-1.6,0-2.7,1.1-2.7,3.6v8.2h-4.1L308.5,216.8L308.5,216.8z"/>
	<path class="st3" d="M337.8,230.3v8.4h-4.1v-21.9h4.1v1.7c1-1.2,2.5-2,4.5-2c3.4,0,7.3,2.5,7.3,7.8s-4,7.8-7.2,7.8
		C340.3,232.1,338.7,231.4,337.8,230.3z M345.5,224.2c0-2.3-1.7-4-4-4c-2.2,0-3.8,1.8-3.8,4s1.6,4,3.8,4
		C343.8,228.3,345.5,226.6,345.5,224.2z"/>
	<path class="st3" d="M350.8,224.3c0-4.3,3.4-7.8,7.8-7.8s7.8,3.5,7.8,7.8s-3.4,7.8-7.8,7.8S350.8,228.6,350.8,224.3z M362.3,224.3
		c0-2.1-1.7-3.9-3.8-3.9c-2.1,0-3.8,1.8-3.8,3.9s1.6,3.9,3.8,3.9C360.6,228.2,362.3,226.4,362.3,224.3z"/>
	<path class="st3" d="M366.3,216.7h4.1l3.1,9.6l3.4-9.6h4.1l3.2,9.6l3.2-9.6h4.1l-5.3,15h-4l-3.4-9.5l-3.5,9.5h-4L366.3,216.7z"/>
	<path class="st3" d="M391.5,224.3c0-4.3,3.5-7.8,7.8-7.8c4.6,0,7.7,3.5,7.7,7.8v1.5h-11.6c0.5,1.7,1.8,2.7,4,2.7
		c1.7,0,3-0.9,3.7-2.3l3.3,1.9c-1.3,2.3-3.7,4-7,4C394.7,232.1,391.5,228.6,391.5,224.3z M395.6,222.4h7.3c-0.5-1.6-1.8-2.4-3.6-2.4
		C397.6,220.1,396.2,221,395.6,222.4z"/>
	<path class="st3" d="M408.7,216.8h4.1v2.5c0.8-1.6,2.1-2.5,4.1-2.5h1.7v4H416c-2.2,0-3.1,1.1-3.1,3.9v7.1h-4.1v-15H408.7z"/>
	<path class="st3" d="M419.4,224.3c0-4.3,3.5-7.8,7.8-7.8c4.6,0,7.7,3.5,7.7,7.8v1.5h-11.6c0.5,1.7,1.8,2.7,4,2.7
		c1.6,0,3-0.9,3.7-2.3l3.3,1.9c-1.3,2.3-3.7,4-7,4C422.6,232.1,419.4,228.6,419.4,224.3z M423.5,222.4h7.3c-0.5-1.6-1.8-2.4-3.6-2.4
		S424.1,221,423.5,222.4z"/>
	<path class="st3" d="M436.1,224.3c0-5.3,3.9-7.8,7.3-7.8c1.9,0,3.5,0.7,4.5,1.8v-8.4h4.1v21.9h-4.1v-1.7c-1,1.2-2.6,2-4.5,2
		C440.2,232.1,436.1,229.6,436.1,224.3z M448,224.2c0-2.2-1.6-4-3.8-4c-2.3,0-4,1.7-4,4s1.7,4,4,4C446.4,228.3,448,226.5,448,224.2z
		"/>
	<path class="st3" d="M465.6,230.2v1.6h-4.1v-21.9h4.1v8.5c1-1.2,2.5-2,4.5-2c3.4,0,7.3,2.5,7.3,7.8s-4,7.8-7.2,7.8
		C468.1,232.1,466.5,231.3,465.6,230.2z M473.3,224.2c0-2.3-1.7-4-4-4c-2.2,0-3.8,1.8-3.8,4s1.6,4,3.8,4
		C471.6,228.3,473.3,226.6,473.3,224.2z"/>
	<path class="st3" d="M482.6,231.1l-6-14.3h4.3l3.7,9.2l3.4-9.2h4.3l-8.7,21.9h-4.1L482.6,231.1z"/>
	<path class="st3" d="M501.4,209.9h12.4v4h-8.2v4.9h8.2v4h-8.2v9h-4.2L501.4,209.9L501.4,209.9z"/>
	<path class="st3" d="M515.7,225.9v-9.2h4.2v8.6c0,2,0.9,3.2,2.8,3.2c1.6,0,2.8-1.1,2.8-3.6v-8.2h4.1v15h-4.1V230
		c-1,1.2-2.4,2-4.1,2C517.8,232.1,515.7,229.8,515.7,225.9z"/>
	<path class="st3" d="M531.3,216.8h2.5v-3.5l4.1-2.2v5.8h2.8v3.7h-2.7v4.8c0,2.3,0.3,2.7,2.8,2.7v3.8h-0.6c-4.8,0-6.3-1.6-6.3-6.5
		v-4.8h-2.5v-3.8H531.3z"/>
	<path class="st3" d="M542.8,225.9v-9.2h4.2v8.6c0,2,0.9,3.2,2.8,3.2c1.6,0,2.8-1.1,2.8-3.6v-8.2h4.1v15h-4.1V230
		c-1,1.2-2.4,2-4.1,2C545,232.1,542.8,229.8,542.8,225.9z"/>
	<path class="st3" d="M559,216.8h4.1v2.5c0.8-1.6,2.1-2.5,4.1-2.5h1.7v4h-2.6c-2.2,0-3.1,1.1-3.1,3.9v7.1h-4.1L559,216.8L559,216.8z
		"/>
	<path class="st3" d="M570.7,211.2h4.1v4.1h-4.1V211.2z M570.7,216.8h4.1v15h-4.1V216.8z"/>
	<path class="st3" d="M576.5,224.3c0-4.3,3.5-7.8,7.8-7.8c3.4,0,6.1,2,7.2,4.7l-3.7,1.6c-0.6-1.4-2-2.4-3.5-2.4
		c-2.2,0-3.8,1.7-3.8,3.9s1.7,3.9,3.8,3.9c1.6,0,3-1,3.5-2.4l3.7,1.6c-1.2,2.8-3.8,4.7-7.2,4.7C579.8,232.1,576.5,228.6,576.5,224.3
		z"/>
	<path class="st3" d="M592.3,224.3c0-4.3,3.5-7.8,7.8-7.8c4.6,0,7.7,3.5,7.7,7.8v1.5h-11.6c0.5,1.7,1.8,2.7,4,2.7
		c1.6,0,3-0.9,3.7-2.3l3.3,1.9c-1.3,2.3-3.7,4-7,4C595.6,232.1,592.3,228.6,592.3,224.3z M596.5,222.4h7.3c-0.5-1.6-1.8-2.4-3.6-2.4
		C598.4,220,597.1,221,596.5,222.4z"/>
</g>
</svg>
